#N canvas -9 -9 1920 1026 12;
#X obj 1043 428 pack f f f f;
#X floatatom 990 371 5 0 0 0 - - -;
#X floatatom 1032 370 5 0 0 0 - - -;
#X floatatom 1077 372 5 0 0 0 - - -;
#X floatatom 1123 372 5 0 0 0 - - -;
#X msg 1048 516 connect 192.168.1.101 4210;
#X obj 993 188 bng 15 250 50 0 empty empty empty 17 7 0 10 -262144
-1 -1;
#X obj 1445 861;
#X floatatom 1049 601 0 0 0 0 - - -;
#X obj 1049 554 netsend -u -b;
#X obj 1141 588 print backward;
#X msg 1043 453 set connect \$4.\$3.\$2.\$1 4210;
#X msg 1243 516 disconnect;
#X floatatom 1234 302 5 0 0 0 - - -;
#X obj 1198 377 bng 15 250 50 0 empty empty empty 17 7 0 10 -262144
-1 -1;
#X obj 1201 330 delay;
#X obj 1147 406 bng 15 250 50 0 empty empty empty 17 7 0 10 -262144
-1 -1;
#X obj 1114 270 inlet;
#X floatatom 694 554 5 0 0 0 - - -;
#X floatatom 738 555 5 0 0 0 - - -;
#X floatatom 784 556 5 0 0 0 - - -;
#X msg 726 758 send 152.598 16.063 255;
#X msg 727 695 set send \$1 \$2 \$3;
#X obj 751 597 bng 15 250 50 0 empty empty empty 17 7 0 10 -262144
-1 -1;
#X obj 839 148 vsl 15 128 0 255 0 0 empty empty Hue 0 -9 0 10 -228856
-1 -1 7600 1;
#X obj 884 150 vsl 15 128 0 255 0 0 empty empty Sat 0 -9 0 10 -228856
-1 -1 800 1;
#X obj 934 147 vsl 15 128 0 255 0 0 empty empty Lev 0 -9 0 10 -228856
-1 -1 12700 1;
#X obj 727 632 pack f f f;
#X obj 789 88 inlet;
#X obj 890 85 inlet;
#X obj 975 87 inlet;
#X msg 942 551 send 1;
#X msg 1010 245 192;
#X msg 1050 241 168;
#X msg 1091 243 1;
#X connect 0 0 11 0;
#X connect 1 0 0 3;
#X connect 2 0 0 2;
#X connect 3 0 0 1;
#X connect 4 0 0 0;
#X connect 4 0 16 0;
#X connect 5 0 9 0;
#X connect 6 0 1 0;
#X connect 6 0 2 0;
#X connect 6 0 3 0;
#X connect 6 0 4 0;
#X connect 6 0 5 0;
#X connect 6 0 21 0;
#X connect 6 0 32 0;
#X connect 6 0 33 0;
#X connect 6 0 34 0;
#X connect 9 0 8 0;
#X connect 11 0 5 0;
#X connect 12 0 9 0;
#X connect 13 0 15 1;
#X connect 14 0 12 0;
#X connect 15 0 14 0;
#X connect 16 0 15 0;
#X connect 17 0 4 0;
#X connect 17 0 6 0;
#X connect 18 0 27 0;
#X connect 19 0 23 0;
#X connect 19 0 27 1;
#X connect 20 0 23 0;
#X connect 20 0 27 2;
#X connect 21 0 9 0;
#X connect 22 0 21 0;
#X connect 23 0 27 0;
#X connect 24 0 18 0;
#X connect 24 0 6 0;
#X connect 25 0 19 0;
#X connect 25 0 6 0;
#X connect 26 0 20 0;
#X connect 26 0 6 0;
#X connect 27 0 22 0;
#X connect 28 0 24 0;
#X connect 29 0 25 0;
#X connect 30 0 26 0;
#X connect 31 0 9 0;
#X connect 32 0 1 0;
#X connect 33 0 2 0;
#X connect 34 0 3 0;
