#N canvas -9 -9 1920 1026 12;
#X obj 180 463 ball, f 16;
#X obj 156 65 vsl 15 128 0 255 0 0 empty empty empty 0 -9 0 10 -262144
-1 -1 25500 1;
#X obj 191 54 vsl 15 128 0 255 0 0 empty empty empty 0 -9 0 10 -262144
-1 -1 7800 1;
#X obj 234 37 vsl 15 128 0 255 0 0 empty empty empty 0 -9 0 10 -262144
-1 -1 1900 1;
#X obj 405 23 vsl 15 128 101 102 0 0 empty empty empty 0 -9 0 10 -262144
-1 -1 0 1;
#X obj 402 175 int;
#X floatatom 402 199 5 0 0 0 - - -;
#X obj 337 102 flash;
#X floatatom 337 65 5 0 0 0 - - -;
#X obj 337 32 bng 15 250 50 0 empty empty empty 17 7 0 10 -262144 -1
-1;
#X connect 1 0 0 0;
#X connect 2 0 0 1;
#X connect 3 0 0 2;
#X connect 4 0 5 0;
#X connect 5 0 6 0;
#X connect 6 0 0 3;
#X connect 7 0 0 2;
#X connect 8 0 7 0;
#X connect 9 0 8 0;
