#N canvas -9 -9 1920 1026 12;
#X msg 578 432 disconnect;
#X floatatom 572 559 0 0 0 0 - - -;
#X obj 572 512 netsend -u -b;
#X obj 660 542 print backward;
#X obj 405 158 bng 15 250 50 0 empty empty empty 17 7 0 10 -262144
-1 -1;
#X msg 406 83 stop;
#X msg 567 405 connect 192.168.1.102 4210;
#X msg 821 434 disconnect;
#X floatatom 812 559 0 0 0 0 - - -;
#X obj 812 512 netsend -u -b;
#X obj 900 542 print backward;
#X msg 808 407 connect 192.168.1.101 4210;
#X msg 403 41 1;
#X obj 405 115 metro 400;
#X obj 429 146 delay 200;
#X floatatom 469 53 5 0 0 0 - - -;
#X obj 484 112 / 2;
#X floatatom 30 177 5 0 0 0 - - -;
#X floatatom 74 178 5 0 0 0 - - -;
#X floatatom 120 179 5 0 0 0 - - -;
#X msg 62 381 send 94.3701 255 165.278;
#X obj 63 255 pack i i i;
#X msg 63 318 set send \$1 \$2 \$3;
#X obj 87 220 bng 15 250 50 0 empty empty empty 17 7 0 10 -262144 -1
-1;
#X obj 31 33 vsl 15 128 0 255 0 0 empty empty Hue 0 -9 0 10 -228856
-1 -1 9400 1;
#X obj 76 35 vsl 15 128 0 255 0 0 empty empty Sat 0 -9 0 10 -228856
-1 -1 25500 1;
#X floatatom 227 43 0 0 0 0 - - -;
#X obj 227 75 osc~ 1000;
#X obj 126 32 vsl 15 128 0 255 0 0 empty empty Lev 0 -9 0 10 -228856
-1 -1 16462 1;
#X obj 226 159 snapshot~;
#X floatatom 224 237 5 0 0 0 - - -;
#X obj 227 187 + 1;
#X obj 227 212 * 128;
#X floatatom 1216 166 5 0 0 0 - - -;
#X floatatom 1260 167 5 0 0 0 - - -;
#X floatatom 1306 168 5 0 0 0 - - -;
#X msg 1248 370 send 158.622 243.413 255;
#X obj 1249 244 pack i i i;
#X msg 1249 307 set send \$1 \$2 \$3;
#X obj 1273 209 bng 15 250 50 0 empty empty empty 17 7 0 10 -262144
-1 -1;
#X connect 0 0 2 0;
#X connect 2 0 1 0;
#X connect 2 1 3 0;
#X connect 4 0 20 0;
#X connect 5 0 13 0;
#X connect 6 0 2 0;
#X connect 7 0 9 0;
#X connect 9 0 8 0;
#X connect 9 1 10 0;
#X connect 11 0 9 0;
#X connect 12 0 13 0;
#X connect 12 0 6 0;
#X connect 12 0 11 0;
#X connect 13 0 4 0;
#X connect 13 0 14 0;
#X connect 13 0 29 0;
#X connect 15 0 13 1;
#X connect 15 0 16 0;
#X connect 16 0 14 1;
#X connect 17 0 21 0;
#X connect 18 0 21 1;
#X connect 18 0 23 0;
#X connect 19 0 21 2;
#X connect 19 0 23 0;
#X connect 20 0 2 0;
#X connect 20 0 9 0;
#X connect 21 0 22 0;
#X connect 22 0 20 0;
#X connect 23 0 21 0;
#X connect 24 0 17 0;
#X connect 25 0 18 0;
#X connect 26 0 27 0;
#X connect 27 0 29 0;
#X connect 28 0 19 0;
#X connect 29 0 31 0;
#X connect 30 0 28 0;
#X connect 31 0 32 0;
#X connect 32 0 30 0;
#X connect 33 0 37 0;
#X connect 34 0 37 1;
#X connect 34 0 39 0;
#X connect 35 0 37 2;
#X connect 35 0 39 0;
#X connect 37 0 38 0;
#X connect 38 0 36 0;
#X connect 39 0 37 0;
